<?xml version="1.0" standalone="no"?><!DOCTYPE svg PUBLIC "-//W3C//DTD SVG 1.1//EN" "http://www.w3.org/Graphics/SVG/1.1/DTD/svg11.dtd"><svg t="1717401481923" class="icon" viewBox="0 0 1445 1024" version="1.1" xmlns="http://www.w3.org/2000/svg" p-id="6766" width="90.3125" height="64" xmlns:xlink="http://www.w3.org/1999/xlink"><path d="M719.209412 670.900706L1438.418824 67.463529 1381.918118 0.180706 1167.962353 179.862588H270.456471L56.621176 0.361412 0 67.644235l719.209412 603.256471z m344.124235-403.275294L719.209412 556.333176 375.024941 267.625412h688.308706z m-674.032941 426.706823c45.236706 0 86.979765-17.408 118.784-49.212235l-63.789177-53.428706a85.413647 85.413647 0 0 1-55.055058 20.058353c-47.405176 0-86.136471-38.671059-86.136471-86.136471 0-15.058824 3.915294-29.816471 11.565176-42.767058l-63.728941-53.428706a166.430118 166.430118 0 0 0-30.358588 96.195764c0 93.063529 75.595294 168.719059 168.658824 168.719059z m835.102118-168.658823c0-34.816-10.480941-67.885176-30.358589-96.256l-63.728941 53.428706c7.649882 12.950588 11.504941 27.708235 11.504941 42.767058 0 47.465412-38.671059 86.136471-86.13647 86.136471-20.359529 0-39.574588-7.107765-54.994824-20.058353l-63.789176 53.428706c31.623529 31.804235 73.487059 49.212235 118.844235 49.212235 93.003294 0 168.658824-75.655529 168.658824-168.658823z" fill="#447EE7" p-id="6767"></path><path d="M870.881882 828.416c53.970824 31.924706 115.772235 48.790588 178.416942 48.790588a351.954824 351.954824 0 0 0 351.653647-351.593412c0-78.305882-26.503529-154.443294-74.63153-216.064l-67.282823 56.440471c34.936471 45.778824 54.211765 102.098824 54.211764 159.623529a264.252235 264.252235 0 0 1-263.951058 263.890824 262.987294 262.987294 0 0 1-193.536-85.052235l-136.553412 114.928941-68.728471-57.584941 0.180706-0.180706-68.065882-56.982588A262.987294 262.987294 0 0 1 389.12 789.684706a264.252235 264.252235 0 0 1-263.830588-263.830588c0-57.584941 19.154824-113.844706 54.151529-159.683765L112.037647 309.729882A351.954824 351.954824 0 0 0 37.466353 525.793882a351.954824 351.954824 0 0 0 351.593412 351.653647 351.171765 351.171765 0 0 0 178.477176-48.850823l15.299765-9.035294 136.372706 114.507294 136.372706-114.507294 15.299764 8.854588z" fill="#447EE7" p-id="6768"></path></svg>